<svg width="48" height="48" viewBox="0 0 48 48" fill="none" xmlns="http://www.w3.org/2000/svg">
<path d="M14 18L21.5 24C22.2094 24.568 23.0912 24.8775 24 24.8775C24.9088 24.8775 25.7906 24.568 26.5 24L34 18M42 34V14C42 12.9391 41.5786 11.9217 40.8284 11.1716C40.0783 10.4214 39.0609 10 38 10H10C8.93913 10 7.92172 10.4214 7.17157 11.1716C6.42143 11.9217 6 12.9391 6 14V34C6 35.0609 6.42143 36.0783 7.17157 36.8284C7.92172 37.5786 8.93913 38 10 38H38C39.0609 38 40.0783 37.5786 40.8284 36.8284C41.5786 36.0783 42 35.0609 42 34Z" stroke="#3B2B20" stroke-width="3" stroke-linecap="round" stroke-linejoin="round"/>
</svg>
